<?xml version="1.0" encoding="utf-8"?>
<svg width="421" height="74" viewBox="0 0 421 74" fill="none" xmlns="http://www.w3.org/2000/svg">
    <path
        d="M149.708 72.1745C146.224 72.9946 142.432 73.4046 138.333 73.4046C134.08 73.4046 130.186 72.7383 126.599 71.4057C123.012 70.0731 119.938 68.228 117.376 65.8191C114.814 63.4101 112.764 60.5399 111.33 57.2085C109.895 53.877 109.178 50.1355 109.178 46.0352C109.178 41.8837 109.895 38.1422 111.381 34.7594C112.867 31.3767 114.917 28.5065 117.478 26.1488C120.092 23.7912 123.115 21.946 126.65 20.6647C130.135 19.3834 133.926 18.7683 137.974 18.7683C142.176 18.7683 146.07 19.3834 149.708 20.6134C153.295 21.8435 156.215 23.5349 158.47 25.6363L150.374 34.6569C149.144 33.2218 147.453 32.0942 145.404 31.1717C143.354 30.2491 141.048 29.8391 138.435 29.8391C136.181 29.8391 134.131 30.2491 132.184 31.0692C130.288 31.8892 128.649 33.0168 127.214 34.4519C125.83 35.887 124.703 37.5784 123.935 39.5772C123.166 41.5761 122.756 43.7288 122.756 46.0865C122.756 48.4954 123.115 50.6993 123.832 52.6982C124.549 54.697 125.574 56.4397 126.958 57.8748C128.341 59.3099 130.032 60.4374 132.082 61.2575C134.131 62.0776 136.437 62.4876 139.05 62.4876C140.536 62.4876 141.971 62.3851 143.354 62.1801C144.686 61.9751 145.967 61.6163 147.095 61.1037V51.6731H136.898V41.4736H158.828V68.9455C156.215 70.2781 153.192 71.3545 149.708 72.1745Z"
        fill="white"
    />
    <path
        d="M199.717 71.8158V67.3567C196.233 70.8419 192.954 72.3283 187.01 72.3283C181.169 72.3283 176.916 70.8419 173.842 67.7667C171.075 64.8965 169.589 60.745 169.589 56.1834C169.589 47.9316 175.225 41.2174 187.215 41.2174H199.41V38.6547C199.41 33.0168 196.643 30.5054 189.777 30.5054C184.807 30.5054 182.552 31.6842 179.888 34.7594L171.638 26.7126C176.711 21.1772 181.63 19.5884 190.289 19.5884C204.739 19.5884 212.271 25.7388 212.271 37.8346V71.8158H199.717ZM199.461 50.033H189.265C184.602 50.033 182.04 52.2369 182.04 55.8759C182.04 59.4636 184.397 61.8213 189.47 61.8213C193.056 61.8213 195.311 61.5138 197.617 59.3611C199 58.0798 199.512 55.9784 199.512 52.8007V50.033H199.461Z"
        fill="white"
    />
    <path
        d="M240.76 71.8156C230.154 71.8156 225.696 64.3839 225.696 57.0546V1.2395H238.557V56.2346C238.557 59.3098 239.838 60.8986 243.117 60.8986H248.087V71.8156H240.76Z"
        fill="white"
    />
    <path
        d="M274.578 71.8158C264.074 71.8158 259.616 64.384 259.616 57.0548V31.4792H254.185V21.6898H259.616V6.41626H272.477V21.6898H281.597V31.4792H272.477V56.286C272.477 59.2587 273.86 60.95 276.935 60.95H281.597V71.867H274.578V71.8158Z"
        fill="white"
    />
    <path
        d="M293.075 11.3366V0.82959H306.244V11.3366H293.075ZM293.28 71.8158V20.2034H306.141V71.867H293.28V71.8158Z"
        fill="white"
    />
    <path
        d="M350.565 71.8158V40.6023C350.565 33.5806 346.107 31.1717 342.06 31.1717C338.012 31.1717 333.451 33.5294 333.451 40.6023V71.8158H320.59V20.2034H333.144V24.97C336.526 21.3823 341.291 19.6396 346.005 19.6396C351.18 19.6396 355.33 21.331 358.2 24.2012C362.35 28.3528 363.477 33.2218 363.477 38.8597V71.867H350.565V71.8158Z"
        fill="white"
    />
    <path
        d="M407.389 71.8158V40.6023C407.389 33.5806 402.932 31.1717 398.884 31.1717C394.836 31.1717 390.276 33.5294 390.276 40.6023V71.8158H377.415V20.2034H390.019V24.97C393.401 21.3823 398.166 19.6396 402.88 19.6396C408.055 19.6396 412.206 21.331 415.075 24.2012C419.226 28.3528 420.353 33.2218 420.353 38.8597V71.867H407.389V71.8158Z"
        fill="white"
    />
    <path
        d="M50.5257 47.5373C50.1681 47.0671 49.5383 46.5704 48.7324 46.326C47.9292 46.0763 46.9712 46.0338 45.9946 46.3578C45.5089 46.5199 45.0232 46.7882 44.5989 47.1893C44.18 47.5904 43.8197 48.1695 43.7397 48.8469C43.705 49.1816 43.7317 49.5217 43.8251 49.8378C43.9238 50.1539 44.0786 50.4355 44.2627 50.6746C44.6416 51.1448 45.114 51.4476 45.5863 51.6309C46.5389 52.0028 47.4836 51.939 48.2414 51.6867C49.002 51.429 49.5757 50.9455 49.8479 50.4541C50.1307 49.9626 50.1121 49.5323 50.0534 49.3703C50.0187 49.2746 49.9226 49.2268 49.8212 49.2215C50.1441 49.2215 50.4643 49.1843 50.6991 49.0515C50.9366 48.924 51.0674 48.6929 50.9953 48.4378C50.982 48.4166 50.8913 48.0155 50.5257 47.5426V47.5373Z"
        fill="white"
    />
    <path
        d="M16.6915 57.398C17.2999 57.0474 17.4013 56.0937 16.9209 55.2622C16.4406 54.4334 15.5573 54.0429 14.9489 54.3909C14.3405 54.7389 14.2391 55.6952 14.7194 56.5267C15.1998 57.3555 16.083 57.746 16.6915 57.398Z"
        fill="white"
    />
    <path
        d="M11.0665 49.7262C10.4528 49.9972 10.2873 50.9615 10.6956 51.8806C11.1039 52.7998 11.9338 53.3257 12.5475 53.0548C13.1613 52.7838 13.3267 51.8195 12.9185 50.9004C12.5102 49.9813 11.6803 49.4553 11.0665 49.7262Z"
        fill="white"
    />
    <path
        d="M83.3002 40.5856C83.1747 40.1366 83.036 39.7036 82.8785 39.2839L82.3262 37.7405C82.158 37.2198 81.9259 36.7284 81.7044 36.229L81.0426 34.736C79.1693 30.8071 76.7276 27.2369 74.1792 23.8286C71.9831 20.9012 69.7255 18.0562 67.5187 15.2085C65.9549 13.2161 64.4739 11.1892 63.0436 9.1358L62.0189 7.57115L61.5065 6.79016L61.0315 5.99056L60.0842 4.39138L58.854 2.0537C58.6165 1.58617 58.2883 1.32052 58.0108 1.15582C57.7573 1.00972 57.365 0.876893 56.9514 0.884863C56.5751 0.887519 56.2042 0.99909 55.948 1.15848C55.9027 1.1877 55.8627 1.22223 55.8253 1.26208L55.4784 1.63133L55.2782 1.8465L55.1768 1.95276C55.1448 1.98995 55.1075 2.01651 55.0835 2.08558L54.6058 3.15082L54.4857 3.41646L54.3816 3.6582L54.2642 3.93447C54.1068 4.30106 53.96 4.67828 53.8132 5.05549C53.5224 5.80993 53.2582 6.58295 53.018 7.36661C52.5484 8.93923 52.1961 10.5862 52.0947 12.2837C52.0387 13.1311 52.0467 13.9945 52.1321 14.8445C52.2148 15.6919 52.3642 16.5154 52.535 17.3097C52.8793 18.9009 53.3089 20.3939 53.5784 21.8443C53.7145 22.5695 53.8079 23.2788 53.8373 23.9774C53.8666 24.6787 53.8373 25.4039 53.7786 26.153C53.7705 26.2726 53.7599 26.3948 53.7492 26.517C53.2582 26.4134 52.7912 26.2195 52.3162 26.0548C51.6624 25.8263 50.9953 25.6297 50.3228 25.4677C48.8525 25.1144 47.3822 24.9683 45.8798 24.9045C45.8691 24.9045 45.8584 24.9045 45.8478 24.9045C45.8584 23.7994 45.17 22.5137 44.5856 21.7513C43.7156 20.6143 42.5335 19.6899 41.3914 18.8372C40.2119 17.9579 38.9657 17.1663 37.6208 16.5659C35.9743 15.8301 34.1838 15.3705 32.4012 15.1686C30.624 14.9747 28.9001 15.0119 27.2457 15.0145C25.5885 15.0252 24.0088 14.9694 22.4077 14.7648C19.6698 14.4275 16.988 13.6837 14.4395 12.6476C12.3821 11.8374 10.3381 10.6022 7.82434 9.89289C6.57548 9.5449 5.16117 9.36426 3.7442 9.61131L3.21584 9.71491C2.99969 9.7707 2.79155 9.83711 2.59408 9.91946C2.39661 10.0018 2.20448 10.0948 2.02035 10.2064C1.92695 10.2621 1.83889 10.3179 1.74283 10.3843C1.62008 10.464 1.51067 10.5597 1.40126 10.6526C0.971631 11.0378 0.61672 11.508 0.461948 12.0393L0.403241 12.2385L0.371219 12.4404C0.352539 12.5706 0.357876 12.7087 0.352539 12.8442C0.360545 12.9797 0.36855 13.1178 0.397904 13.2506C0.437931 13.3808 0.459279 13.519 0.504643 13.6465C0.624726 13.9413 0.782167 14.2229 1.00098 14.4646C1.19845 14.6851 1.43328 14.8817 1.69479 15.0384C1.82288 15.1208 1.96164 15.1925 2.09774 15.2589L2.20181 15.3067L2.27386 15.3386L2.40995 15.3971C2.58607 15.4688 2.74885 15.5299 2.89295 15.5804L3.28255 15.7451L4.06442 16.0691C4.19785 16.117 4.32327 16.1834 4.44602 16.2524L4.82227 16.4517C5.07311 16.5872 5.32662 16.712 5.57479 16.8555L6.29795 17.3283C6.78896 17.6232 7.2346 18.011 7.69358 18.3643C9.50549 19.844 11.1013 21.6663 12.7024 23.5232C14.3008 25.3853 15.8965 27.3245 17.7085 29.1389C18.1834 29.5931 18.6584 30.0501 19.1575 30.4831L19.9286 31.118L20.3156 31.4341L20.7265 31.7263C21.8286 32.5418 22.8987 33.182 23.9741 33.878C24.7666 34.3827 25.5218 34.9539 26.3197 35.4666C26.4958 35.5808 26.6799 35.6924 26.8667 35.7933C26.8347 35.8332 26.8 35.8703 26.768 35.9102C25.7887 37.0923 24.9321 38.3594 24.0301 39.5761C24.0301 39.5761 23.7606 39.9374 23.7553 39.9427L23.7286 39.9666C23.6939 40.0011 23.6245 40.041 23.5738 40.0782C23.347 40.2322 23.0641 40.3916 22.7626 40.5377C22.1595 40.8353 21.4924 41.1009 20.8173 41.348C19.459 41.8421 18.042 42.2671 16.6197 42.6788C15.1654 43.0959 13.7164 43.5608 12.2434 43.9406C11.699 44.0788 11.1359 44.1372 10.5889 44.2435C10.4235 44.2754 10.2527 44.3099 10.1006 44.379C8.74497 44.456 7.67757 45.075 6.91971 45.7338C2.30855 49.745 7.36269 55.4989 9.5215 57.9561C12.6196 61.4839 15.6724 63.3301 18.2155 63.3301C19.1548 63.3301 20.022 63.0751 20.7986 62.5624C20.9774 62.5624 21.1588 62.5544 21.2149 62.5518C21.9781 62.5278 22.7626 62.6607 23.5258 62.7032C23.5952 62.7058 24.0034 62.7483 24.5345 62.8015C25.5325 64.4936 26.7387 66.0822 28.233 67.3679C29.6927 68.6244 31.4752 69.3788 33.1857 70.2262C34.4399 70.8452 35.7075 71.4323 36.9804 72.014C37.6021 72.2983 38.2265 72.5772 38.8456 72.8694C39.3847 73.1244 39.7236 73.2201 40.3133 73.3502C40.7136 73.4405 42.1412 73.5601 42.232 72.5878C42.336 71.4402 40.2786 70.4627 39.3206 70.0748C36.5774 68.9618 33.6901 67.7611 31.187 66.1725C29.9569 65.3915 29.0042 64.4113 28.1156 63.269C28.0649 63.2026 28.0089 63.1362 27.9555 63.0698C28.0249 63.0724 27.9101 63.0645 27.6886 63.0485C28.4972 63.0777 28.9215 63.0565 29.0789 63.0432C30.8588 62.9396 32.548 62.132 33.8742 60.9685C34.5494 60.3735 35.1151 59.6854 35.5981 58.9284C36.0064 58.2881 36.6415 57.3796 36.2732 56.5907C36.1264 56.2772 35.7021 56.0328 34.9923 55.9133C34.2398 55.7831 33.7515 56.9015 33.4419 57.3982C33.015 58.0809 32.3932 58.6521 31.7261 59.1037C29.231 60.8012 26.5652 60.2433 23.7579 59.9962L22.7919 59.898C23.5204 57.3132 22.1275 53.7828 18.7438 49.9309C17.1801 48.1511 15.8672 46.8867 14.653 46.0047C15.9419 45.6673 17.2281 45.3114 18.5143 44.9288C19.491 44.6366 20.4944 44.4055 21.471 44.0496C22.2369 43.768 22.9974 43.4519 23.7659 43.0693C24.1529 42.8701 24.5345 42.6656 24.9348 42.3972C25.0335 42.3335 25.1376 42.2538 25.239 42.1821C25.2897 42.1422 25.3377 42.113 25.3937 42.0625L25.5779 41.9031C25.6472 41.8341 25.7326 41.7889 25.7833 41.7066L25.9408 41.4887L26.1116 41.2523C27.4378 39.3981 28.7987 37.5891 30.3011 35.9155C32.025 34.0055 33.9249 32.2762 35.9983 30.8709C36.3266 30.6531 36.6521 30.4299 36.991 30.2334C37.1591 30.1324 37.3246 30.0261 37.4954 29.9305L38.0077 29.6489C40.1532 28.4854 42.4935 27.7629 44.8898 27.6433C47.3795 27.5185 49.8879 28.0497 52.2655 28.9769C52.4443 29.0379 52.6204 29.1123 52.8045 29.1601C53.1194 29.2372 53.3302 29.2584 53.5224 29.1787C53.4797 29.7446 53.445 30.321 53.4423 30.9161C53.4423 31.3491 53.453 31.7874 53.493 32.231L53.5197 32.5445C53.5197 32.5445 53.5224 32.571 53.525 32.5843L53.5731 32.9004L53.6745 33.5433C53.6772 33.5619 53.6798 33.5778 53.6852 33.5964L53.8399 34.226L53.9173 34.5288C53.92 34.5448 53.9253 34.5607 53.9307 34.574L54.0294 34.8715L54.2375 35.4852C54.2429 35.5011 54.2482 35.517 54.2562 35.5303L54.5097 36.1227L54.6351 36.4096C54.6405 36.4229 54.6485 36.4362 54.6538 36.4495L54.7979 36.7257L55.0995 37.2942C55.1075 37.3075 55.1155 37.3208 55.1235 37.3341L55.465 37.8786L55.6332 38.1416C55.6332 38.1416 55.6492 38.1655 55.6572 38.1761L55.8413 38.4259L56.2229 38.9412C56.2229 38.9412 56.2416 38.9651 56.2496 38.9757L56.6659 39.4645L56.8687 39.701C56.8687 39.701 56.8874 39.7222 56.898 39.7328L57.1168 39.956L57.5838 40.4288C58.5311 41.3267 59.5665 42.1555 60.7513 42.7665C61.2397 43.0003 61.76 43.2473 62.2751 43.319C62.4512 43.3483 62.614 43.3695 62.7661 43.3669C62.9208 43.3615 63.0596 43.3429 63.1823 43.3137C63.4305 43.2579 63.6146 43.1597 63.7347 43.0295C63.9749 42.7692 63.9482 42.384 63.6814 41.951C63.58 41.7863 63.4705 41.6295 63.3478 41.4861C63.2277 41.3347 63.1023 41.1833 62.9555 41.0504C62.8114 40.9176 62.6513 40.8007 62.4779 40.6679C62.3044 40.5404 62.1043 40.4421 61.8881 40.3252C59.8521 39.2892 58.1442 37.5439 57.1409 35.4825C56.6392 34.4518 56.3056 33.3494 56.1989 32.223C56.0841 31.0808 56.1642 29.8721 56.2843 28.6129C56.3803 27.5928 56.5218 26.5382 56.5938 25.4358C56.6258 24.8833 56.6392 24.3201 56.6205 23.7463C56.5912 23.1752 56.5404 22.604 56.4497 22.0568C56.1749 20.3221 55.6919 18.7229 55.3209 17.1849C55.1342 16.4145 54.974 15.6601 54.8726 14.9162C54.7712 14.1751 54.7392 13.4393 54.7632 12.6928C54.8406 10.7562 55.3316 8.80109 56.0228 6.88048C56.1935 6.39966 56.3803 5.91884 56.5751 5.44068L56.9274 4.59327C56.9594 4.53749 56.9647 4.44185 57.0421 4.43123C57.1249 4.42326 57.1409 4.51623 57.1782 4.57202L57.6505 5.46724C59.0408 7.91384 60.5539 10.2834 62.1897 12.5387C63.8174 14.7967 65.5093 17.0016 67.2144 19.1613C68.2845 20.532 69.3653 21.8868 70.414 23.2522C71.2519 24.3148 72.0391 25.3986 72.8476 26.4745C73.6135 27.5716 74.4141 28.6501 75.1212 29.7764L75.6682 30.6132L75.9404 31.0329L76.1913 31.4606L77.2 33.174C77.5202 33.7505 77.8084 34.3429 78.1153 34.9273C78.2647 35.2222 78.4221 35.5117 78.5609 35.8092L78.9532 36.7124L79.3614 37.6502L79.5643 38.1177C79.6283 38.2744 79.679 38.4365 79.735 38.5959L80.4048 40.5165C80.8238 41.8049 81.1093 43.0321 80.9625 44.0868L80.9119 44.4347C80.9065 44.464 80.9012 44.4932 80.8932 44.5198C80.8611 44.634 80.8238 44.7456 80.7918 44.8571C80.7731 44.9209 80.7597 44.9846 80.7357 45.0484L80.653 45.2317C80.5943 45.3512 80.5543 45.4787 80.4849 45.5956C80.226 46.0711 79.8738 46.5068 79.4709 46.9079C78.6303 47.6809 77.5575 48.2839 76.3994 48.5815C76.0605 48.6851 75.7083 48.7329 75.3694 48.8259C74.6782 48.9667 74.2806 49.0198 73.9951 49.2296C73.795 49.3651 73.6482 49.583 73.4801 49.9177C73.3306 50.2152 73.4347 50.5765 73.7149 50.7571C74.2646 51.1078 74.9184 51.3628 75.6496 51.4292C76.5969 51.5169 77.683 51.3256 78.7424 50.7066C78.8945 50.6163 79.0466 50.5313 79.2013 50.4463C79.3508 50.3507 79.5029 50.2577 79.6577 50.1647C79.9699 49.992 80.2634 49.7742 80.5703 49.5723C80.7277 49.4767 80.8638 49.3492 81.0106 49.2376C81.1547 49.1181 81.3041 49.0118 81.4402 48.8817C81.7044 48.6133 81.9899 48.3663 82.2087 48.0528C82.9639 47.0939 83.5056 45.9091 83.6924 44.6605C83.8205 43.8477 83.8739 42.5035 83.3082 40.5882L83.3002 40.5856ZM16.6117 51.7878C19.2749 54.8215 21.1962 58.5485 19.4803 60.0414C17.7645 61.5343 14.3088 59.1409 11.6456 56.1099C6.94373 50.7544 7.4881 48.9773 8.77699 47.8563C9.71363 47.0407 10.6556 46.9717 11.9312 47.6278C13.204 48.2813 14.6904 49.6042 16.6117 51.7905V51.7878ZM41.0258 25.566C39.9691 25.8529 38.9577 26.2513 37.9704 26.6976C36.2919 27.4892 34.7041 28.4376 33.2525 29.5427C31.5179 30.8682 29.9515 32.3585 28.5025 33.9338C28.3184 33.6389 28.0569 33.3733 27.6886 33.1475C26.8321 32.6215 25.9755 32.0769 25.1269 31.527L23.8567 30.6956L23.2322 30.2759L22.6505 29.8482C21.0974 28.7165 19.6831 27.3484 18.3329 25.8847C17.2388 24.7053 16.2541 23.393 15.1707 22.1445C13.4682 20.1813 11.6723 18.2129 9.58021 16.465L8.73163 15.8035L8.30467 15.4741L7.85102 15.1739L6.94373 14.5736L5.98307 14.0476L5.50274 13.7873C5.33996 13.7022 5.16651 13.6385 4.9984 13.5641L3.98437 13.1338C3.80824 13.0567 3.65881 13.0089 3.52538 12.9558L3.34126 12.8787L3.30657 12.8628C3.26921 12.8442 3.23185 12.8176 3.2105 12.7778C3.17848 12.7114 3.2105 12.6344 3.2612 12.5865C3.26654 12.5812 3.27455 12.5759 3.28255 12.5679C3.29589 12.5573 3.28255 12.5679 3.32258 12.5387C3.38662 12.4962 3.456 12.4564 3.52805 12.4218C3.6001 12.3873 3.67482 12.3554 3.74954 12.3315C3.7869 12.3182 3.82159 12.3129 3.85628 12.2996L4.01105 12.2704L4.33394 12.2067L4.66216 12.1748C4.77157 12.1588 4.88365 12.1562 4.99573 12.1588C5.1078 12.1588 5.21988 12.1509 5.33196 12.1588C5.7856 12.1801 6.24725 12.2465 6.71424 12.3528C7.65088 12.5733 8.60087 12.9398 9.56153 13.3702C10.5249 13.7979 11.4935 14.2867 12.5316 14.7436C13.5669 15.2005 14.6263 15.6096 15.7017 15.9629C17.06 16.4118 18.4476 16.7704 19.8513 17.0414C22.0448 17.4691 24.305 17.6763 26.5198 17.6869C28.7133 17.7055 30.8108 17.6418 32.7695 17.9526C36.7962 18.5981 40.5375 21.0155 42.8377 24.3679C42.9925 24.6123 43.1713 24.8487 43.3367 25.0851C42.5548 25.1967 41.7783 25.3694 41.0178 25.5686L41.0258 25.566Z"
        fill="white"
    />
</svg>
