<?xml version="1.0" encoding="utf-8"?>
<!-- Generator: Adobe Illustrator 19.2.0, SVG Export Plug-In . SVG Version: 6.00 Build 0)  -->
<svg version="1.1" id="Layer_1" xmlns="http://www.w3.org/2000/svg" xmlns:xlink="http://www.w3.org/1999/xlink" x="0px" y="0px"
	 viewBox="0 0 826 156.6" style="enable-background:new 0 0 826 156.6;" xml:space="preserve">
<style type="text/css">
	.st0{fill:#050304;}
	.st1{clip-path:url(#SVGID_2_);}
	.st2{fill:#050304;stroke:#FFFFFF;stroke-width:1.75;stroke-miterlimit:10;}
</style>
<g>
	<path class="st0" d="M298,152.3c-6.8,1.6-14.2,2.4-22.2,2.4c-8.3,0-15.9-1.3-22.9-3.9c-7-2.6-13-6.2-18-10.9
		c-5-4.7-9-10.3-11.8-16.8c-2.8-6.5-4.2-13.8-4.2-21.8c0-8.1,1.4-15.4,4.3-22c2.9-6.6,6.9-12.2,11.9-16.8c5.1-4.6,11-8.2,17.9-10.7
		c6.8-2.5,14.2-3.7,22.1-3.7c8.2,0,15.8,1.2,22.9,3.6c7,2.4,12.7,5.7,17.1,9.8l-15.8,17.6c-2.4-2.8-5.7-5-9.7-6.8
		c-4-1.8-8.5-2.6-13.6-2.6c-4.4,0-8.4,0.8-12.2,2.4c-3.7,1.6-6.9,3.8-9.7,6.6c-2.7,2.8-4.9,6.1-6.4,10c-1.5,3.9-2.3,8.1-2.3,12.7
		c0,4.7,0.7,9,2.1,12.9c1.4,3.9,3.4,7.3,6.1,10.1c2.7,2.8,6,5,10,6.6c4,1.6,8.5,2.4,13.6,2.4c2.9,0,5.7-0.2,8.4-0.6
		c2.6-0.4,5.1-1.1,7.3-2.1v-18.4H273V92.4h42.8V146C310.7,148.6,304.8,150.7,298,152.3z"/>
</g>
<g>
	<path class="st0" d="M395.6,151.6v-8.7c-6.8,6.8-13.2,9.7-24.8,9.7c-11.4,0-19.7-2.9-25.7-8.9c-5.4-5.6-8.3-13.7-8.3-22.6
		c0-16.1,11-29.2,34.4-29.2h23.8v-5c0-11-5.4-15.9-18.8-15.9c-9.7,0-14.1,2.3-19.3,8.3l-16.1-15.7c9.9-10.8,19.5-13.9,36.4-13.9
		c28.2,0,42.9,12,42.9,35.6v66.3H395.6z M395.1,109.1h-19.9c-9.1,0-14.1,4.3-14.1,11.4c0,7,4.6,11.6,14.5,11.6
		c7,0,11.4-0.6,15.9-4.8c2.7-2.5,3.7-6.6,3.7-12.8V109.1z"/>
	<path class="st0" d="M475.7,151.6c-20.7,0-29.4-14.5-29.4-28.8V13.9h25.1v107.3c0,6,2.5,9.1,8.9,9.1h9.7v21.3H475.7z"/>
	<path class="st0" d="M541.7,151.6c-20.5,0-29.2-14.5-29.2-28.8V72.9h-10.6V53.8h10.6V24h25.1v29.8h17.8v19.1h-17.8v48.4
		c0,5.8,2.7,9.1,8.7,9.1h9.1v21.3H541.7z"/>
	<path class="st0" d="M577.8,33.6V13.1h25.7v20.5H577.8z M578.2,151.6V50.9h25.1v100.8H578.2z"/>
	<path class="st0" d="M690,151.6V90.7c0-13.7-8.7-18.4-16.6-18.4c-7.9,0-16.8,4.6-16.8,18.4v60.9h-25.1V50.9H656v9.3
		c6.6-7,15.9-10.4,25.1-10.4c10.1,0,18.2,3.3,23.8,8.9c8.1,8.1,10.3,17.6,10.3,28.6v64.4H690z"/>
	<path class="st0" d="M800.9,151.6V90.7c0-13.7-8.7-18.4-16.6-18.4c-7.9,0-16.8,4.6-16.8,18.4v60.9h-25.1V50.9h24.6v9.3
		c6.6-7,15.9-10.4,25.1-10.4c10.1,0,18.2,3.3,23.8,8.9c8.1,8.1,10.3,17.6,10.3,28.6v64.4H800.9z"/>
</g>
<g>
	<defs>
		<rect id="SVGID_1_" x="-16.6" width="241.3" height="156.6"/>
	</defs>
	<clipPath id="SVGID_2_">
		<use xlink:href="#SVGID_1_"  style="overflow:visible;"/>
	</clipPath>
	<g class="st1">
		<path class="st0" d="M166.2,141.5c0.4,0.1,0.8,0.1,1.3,0.2c1,0.2,2,0.4,3,0.7c0.1,0,0.3,0.1,0.4,0.1c0.9,0.2,2,0.4,3.1,0.6
			c1.7,0.4,3.4,1,5.1,1.8c-2.3-1.5-4.7-2.7-7.1-3.6c-1.7-0.6-3.4-1.1-5-1.5c-1.6-0.3-3.2-0.6-4.7-1c-2.9-0.8-5.2-1.9-7.1-3
			c1.8,2,4.3,3.4,7,4.4C163.5,140.7,164.8,141.1,166.2,141.5"/>
		<path class="st0" d="M169.3,196.4c-0.9,0.7-1.7,1.4-2.4,2.1c-1.5,1.4-2.9,3-3.8,4.7c-0.5,0.8-0.9,1.7-1.1,2.6
			c-0.3,0.9-0.5,1.8-0.5,2.6c-0.1,1.8,0.2,3.5,0.9,5.2c1,2.4,2.5,4.5,4.1,6.4c-1.1-1.8-2-3.8-2.5-6.2c-0.3-1.5-0.4-3.2-0.2-4.8
			c0.2-1.7,0.7-3.3,1.3-4.9c1.4-3.2,3.6-5.9,6.1-8.4c0.6-0.6,1.3-1.2,2-1.8c0.7-0.5,1.3-1.1,2-1.6c0.4-0.3,0.7-0.6,1.1-0.9
			c-1.4,1.1-2.9,2.1-4.3,3.1C171,195.1,170.1,195.7,169.3,196.4"/>
		<path class="st0" d="M52.7,82.7c-0.1-0.4-0.3-0.9-0.5-1.5c-0.6-1.1-1.7-2.3-3.2-2.9c-0.4-0.2-0.8-0.3-1.3-0.4
			c-0.3,0-0.5-0.1-0.8-0.1c-0.2,0-0.4,0-0.6,0c-0.6,0-1,0.1-1.4,0.2c-0.4,0.1-0.7,0.3-1,0.5c-0.6,0.4-0.9,0.9-1,1.2
			c-0.2,0.4-0.2,0.6-0.2,0.6s0.2-0.1,0.6-0.1c0.2,0,0.4,0,0.6,0c0.2,0,0.5,0,0.7,0.1c0.2,0,0.5,0.1,0.7,0.2c0.2,0.1,0.5,0.2,0.6,0.3
			l0,0l0.1,0.1l0.2,0.1l0,0l0,0c0,0-0.1,0-0.1,0l0,0l0,0l0,0l0.1,0.1l0.2,0.1c0.2,0.2,0.5,0.3,0.7,0.5c1,0.7,2.3,1.2,3.5,1.4
			c0.6,0.1,1.1,0.2,1.5,0.2c0.2,0,0.4,0,0.5,0c0.1,0,0.2,0,0.2,0s0-0.1,0-0.2C52.7,83.1,52.7,82.9,52.7,82.7"/>
		<polygon class="st0" points="-113.5,64.9 -82.1,64.9 -31.7,64.9 -30.4,64.9 -30.4,138.3 -76.9,138.3 -82.1,138.3 -113.5,138.3 
			-87,101.6 		"/>
		<path class="st0" d="M-16.6,161.3c4.9-0.1,17-2.3,17-2.3c10.5-2.8,14.4,2.5,14.4,2.5c5.3,5.7,14.8,10.6,25,13.9
			c-0.5,0.4-1.1,0.8-1.6,1.2c-1.1,0.8-2.2,1.6-3.4,2.5c-1.2,0.8-2.4,1.7-3.7,2.5c-1.2,0.9-2.5,1.7-3.8,2.5c-1.3,0.9-2.6,1.6-3.9,2.5
			c-1.3,0.8-2.5,1.6-3.8,2.3c-1.2,0.7-2.5,1.4-3.6,2c-0.6,0.3-1.2,0.6-1.7,0.9c-0.3,0.1-0.6,0.3-0.8,0.4c-0.2-1.5-0.1-2.5-0.1-2.5
			s1.5-5.5-5.4-9.2c-3.7-2-6.8-0.6-11.3,0v0c-3.5,0.9-6.9,1.3-10.6,1.9c-4.2,0.6-5.8,0.7-7.3,0.4v18.3c-0.2,3.5-5.3,3.5-5.5,0v-25
			c0,0-0.1,0-0.1,0V157c0-13.9,0.1-69.9,0.1-94.6c0.2-3.5,5.3-3.5,5.5,0V161C-19.8,161.2-18.3,161.3-16.6,161.3"/>
		<path class="st2" d="M-21.8,231.6c2.3-3.4,5.4-5.2,8.3-9.2c2.9-4,8.2-15,8.2-15c4-10.1,10.6-10.1,10.6-10.1
			c13.2-1.4,31.5-14.1,42-25.9c8.5-9.5,14.1-8.9,15.9-8.3c6-19.7-14.1-29-14.1-29v0c-23.5-8.6-42.2-28.9-42.2-28.9
			c-6.7-1.9-5.5-9.2-4.8-10.4c0.6-1.2-0.5-6.5-0.5-6.5s-2-8.3,1.4-8.6C6.4,79.5,5.8,83,7.3,82c1.5-0.9,2.7-0.4,2.7-0.4
			s6.2,2.2,17.3-6.6c7.5-6,20.8-11.3,28.4-14c-14.8,1.1-14.4-2-14.4-2l14.1-5.7l5.3,0.8c-1.6,1.7-3,3.6-4,5.6
			c-0.2,0.3-0.3,0.7-0.5,1.1c-0.7,1.7-1.3,3.4-1.7,5.1c0,0.1,0,0.2-0.1,0.2c-0.1,0.5-0.2,1-0.3,1.5c-0.5,2.7-0.7,5.4-0.6,8.1v0v0
			c0,2.7,0.2,5.3,0.5,8c0.4,2.7,0.8,5.3,1.8,8.1c0.3,0.7,0.6,1.4,1.2,2.2l0.2,0.2l0.2,0.2l0.1,0.1c0.2,0.2,0.4,0.4,0.7,0.6
			c0.3,0.2,0.7,0.4,1.2,0.5c0.5,0.1,1.2,0,1.7-0.2c0.9-0.4,1.2-0.9,1.5-1.2c0.3-0.4,0.5-0.7,0.7-1l1-1.7c1.3-2.1,2.8-3.6,4.7-4.4
			c0.2-0.1,0.5-0.2,0.7-0.3c0.1,0,0.3-0.1,0.4-0.1l0.4-0.1c0.6-0.1,1.1-0.3,1.8-0.3c0.6-0.1,1.2-0.2,1.8-0.2
			c0.6-0.1,1.2-0.1,1.9-0.1c1.8-0.1,3.6-0.1,5.4,0l0,0c0.7,0,1.5,0.1,2.2,0.1c2.1,0.1,4.2,0.3,6.3,0.5c0.5,0,0.9,0.1,1.4,0.1
			c1.3,0.1,2.6,0.2,3.9,0.3c0.7,0,1.4,0.1,2,0.1l0.5,0l0.5,0l1,0c1.3,0,2.6,0,3.8,0c1.2,0.1,2.3,0.3,2.7,0.8
			c0.4,0.4,0.4,1.7,0.2,2.8c-0.2,1.1-0.6,2-1.5,2.4c-0.9,0.5-2.1,0.6-3.3,0.4c-1.2-0.1-2.5-0.4-3.7-0.8c-0.8-0.3-1.6-0.5-2.4-0.8
			c-0.2-0.1-0.3-0.1-0.5-0.2c-1.4-0.6-2.8-1.2-4.2-1.9c2.1,1.5,4.4,2.9,6.8,3.9c1.2,0.5,2.5,1,3.8,1.3c1.3,0.3,2.8,0.4,4.3-0.2
			c0.7-0.3,1.4-0.8,1.9-1.5c0.5-0.7,0.8-1.4,0.9-2.1c0.2-0.6,0.3-1.4,0.3-2.2c0-0.8-0.1-1.7-0.7-2.5c-0.6-0.8-1.5-1.3-2.2-1.5
			c-0.8-0.3-1.5-0.4-2.2-0.5c-1.4-0.2-2.7-0.2-4-0.2l-1,0l-0.5,0l-0.5,0c-0.7,0-1.3-0.1-1.9-0.1c-1.3-0.1-2.5-0.3-3.8-0.4
			c-0.7-0.1-1.4-0.2-2-0.2c-0.8-0.1-1.6-0.2-2.4-0.3c-1.1-0.1-2.2-0.2-3.3-0.3c-2.6-0.2-5.3-0.4-8-0.3c-0.7,0-1.3,0-2,0.1
			c-0.7,0-1.4,0.1-2.1,0.2c-0.7,0.1-1.4,0.2-2.1,0.3c-0.2,0-0.3,0.1-0.5,0.1l-0.5,0.1c-0.4,0.1-0.7,0.2-1.1,0.4
			c-1.4,0.6-2.8,1.4-3.9,2.5c-1.1,1-2,2.2-2.7,3.4l-1,1.6c0-0.1-0.1-0.2-0.1-0.2c0-0.1-0.1-0.1-0.1-0.2c0-0.1-0.1-0.2-0.1-0.3
			c-0.8-2.1-1.2-4.6-1.5-7.1c-0.3-2.5-0.5-5-0.6-7.6c0-0.6,0-1.2,0-1.8v0c0,0,0-0.1,0-0.1c0-0.5,0-1,0.1-1.5c0-0.2,0-0.4,0-0.6
			c0-0.4,0.1-0.7,0.1-1.1c0-0.2,0-0.4,0.1-0.6c0.1-0.4,0.1-0.8,0.2-1.2c0-0.1,0-0.2,0.1-0.4c0.4-2.4,1.1-4.7,2.2-6.9
			c0.4-0.7,0.8-1.5,1.2-2.2c0-0.1,0.1-0.1,0.1-0.2c0.2-0.3,0.4-0.7,0.7-1c0.1-0.2,0.3-0.3,0.4-0.5c0.2-0.2,0.4-0.5,0.6-0.7
			c0.4-0.4,0.7-0.8,1.1-1.2c1.4-1.3,2.9-2.3,4.6-3.2l-0.1,0c0.4-0.2,0.9-0.4,1.3-0.6l0.1-0.1v0h0h0c0,0,0.1,0,0.1,0
			c0.1,0,0.3,0,0.4-0.1c0.2,0,0.3,0,0.5,0c0.2,0,0.4,0,0.6,0c0.4,0,0.7,0.1,1.1,0.2c0.4,0.1,0.8,0.2,1.1,0.3l1.1,0.5l1.1,0.5
			c0.4,0.2,0.8,0.4,1.1,0.6c0.3,0.2,0.7,0.4,1,0.6c0,0,0,0,0,0c0,0,0.1,0,0.1,0.1c0.7,0.5,1.5,0.9,2.2,1.4c0.3,0.2,0.5,0.4,0.8,0.5
			l0,0c0.5,0.3,0.9,0.6,1.4,1c0.7,0.5,1.4,1,2.1,1.6c0.7,0.5,1.4,1.1,2.1,1.6v0c0,0,0,0,0,0c-0.2-0.3-0.4-0.5-0.6-0.8
			c-0.3-0.4-0.7-0.9-1-1.3c-0.2-0.2-0.3-0.4-0.5-0.6c-0.3-0.3-0.5-0.6-0.8-0.9l0.7,0.5c1.3,0.4,2.7,0.9,4.2,1.4
			c1.7,0.6,3.4,1.3,5.2,2.1c1.8,0.7,3.6,1.6,5.4,2.5c1.8,0.9,3.6,1.9,5.4,3c1.8,1,3.5,2.2,5.1,3.4c0.8,0.6,1.6,1.2,2.4,1.8
			c0.8,0.6,1.5,1.3,2.3,1.9c0.7,0.6,1.4,1.3,2.1,1.9c0.7,0.7,1.3,1.3,1.9,1.9c1.2,1.3,2.3,2.5,3.3,3.8c0.2,0.3,0.5,0.5,0.7,0.8
			c0.1,0.1,0.2,0.3,0.3,0.4l0,0c0.1,0.2,0.3,0.4,0.4,0.5c0.4,0.6,0.9,1.1,1.2,1.6c0.7,1.1,1.4,2,1.9,2.7c1,1.6,1.6,2.5,1.6,2.5
			s0-0.1,0-0.2c3.7,6.5,5.1,11.4,5.1,11.4s4,9.5,9,28.2c8.2,30.5,9.8,37.2,7.3,54c-1.8,11.8-7.5,22.7-2.2,39.2
			c15.9,49.8,3.5,78.6-11.3,94.5c1,4.2,5,11.7,21.2,12.4c8.1,0.4,13.5-2.1,17-5.8l0.8-0.7l0.8-0.8c1.1-1.1,2-2.3,2.7-3.7
			c0.7-1.4,1.3-2.8,1.6-4.3c0.3-1.5,0.5-2.9,0.5-4.3c0-2.8-0.6-5.3-1.4-7.3c0,0,0-0.1-0.1-0.1c-0.5-2.3-1.4-4.1-2.3-5.2
			c-2.4-2.5-10-5.5-12.3,2c0,0-1.8,7.7,12.4,10.9c-0.1,1-0.3,2.1-0.6,3.1c-0.3,1.2-0.8,2.3-1.3,3.3c-0.2,0.5-0.5,0.9-0.8,1.3
			c-6.2-1.5-23.8-7.5-16.8-25.1c7-17.6,36.4-5,33.4,21.3c-3.3,28.6-43.9,48.2-69.5,14.9c-4.6,2.8-8.5,4.5-10.7,5.3
			c6,6.3,1.4,9.9-0.1,14.2c-1.8,4.8,6.6,8.4,15.2,14.7c8.6,6.3,7.6,9.6,2.1,20.8c-5.5,11.2-1.8,18.4-1.8,18.4
			c0.2,5.6-0.6,14.5-1.8,19.4c-1.2,4.9-1.7,5.2-3.1,7c-1.4,1.8-1.9,0.1-2.3-1.3c-0.4-1.4-2.4-1.9-2.7-0.7c-0.2,1.2-0.4,2-0.4,2
			c-0.5,5.5-12.2,5.1-14.3,4.7c-2.1-0.4-0.8-1.6-0.8-1.6c-3.2-0.3-2.5-1.4-2.5-1.4s3.7-1.3,4.8-4.4c1.2-3.1,1.4-5.9,3.2-9.5
			c5.3-10.5,6.9-22.1,7.3-27.7c-1.7-6.5-7.7-12.6-22.1-18.8c-1.2-0.5-2.4-1-3.5-1.6c-0.9-0.6-2.1-1.4-3.6-2.3
			c-0.8-0.5-1.6-1.2-2.6-1.8c-0.9-0.7-2-1.4-3-2.2c-2.1-1.7-4.5-3.5-6.8-5.7c-0.6-0.6-1.3-1-1.8-1.6c-0.6-0.6-1.2-1.2-1.8-1.8
			c-1.3-1.2-2.5-2.5-3.7-3.9c-1.3-1.3-2.4-2.8-3.7-4.3c-0.6-0.7-1.2-1.5-1.8-2.3c-0.3-0.4-0.6-0.8-0.9-1.2c-0.3-0.4-0.6-0.8-0.9-1.2
			c-1.2-1.6-2.3-3.3-3.4-5c-1-1.7-2.1-3.5-3-5.3c-0.2-0.4-0.4-0.8-0.6-1.2c-0.2-0.4-0.4-0.8-0.5-1.2c0-0.1-0.1-0.2-0.1-0.3
			c-0.4-1-0.8-2-1.2-3c-0.4-1-0.8-2-1.2-3l-1.1-3c-1.4-4-2.6-8-3.4-12.1c0-0.2-0.1-0.4-0.1-0.6c-0.2-1-0.3-1.9-0.5-2.9
			c-0.1-0.7-0.2-1.4-0.3-2.1c0-0.4-0.1-0.8-0.1-1.2c-0.1-0.5-0.1-1-0.1-1.6c0-0.3,0-0.6-0.1-1c0-0.8-0.1-1.7-0.1-2.5
			c0-0.8,0.1-1.7,0.1-2.5c0-0.3,0-0.6,0.1-0.9c0-0.5,0.1-1.1,0.2-1.6c0-0.3,0.1-0.6,0.1-0.9c0.1-0.7,0.2-1.4,0.4-2.2
			c0.2-0.9,0.4-1.9,0.7-2.8c0.9-3.4,2.4-6.4,4-9c0.3-0.6,0.7-1.1,1.1-1.6c0.1-0.2,0.3-0.4,0.4-0.6c0.2-0.3,0.4-0.5,0.6-0.7
			c0.4-0.6,0.9-1.1,1.3-1.6h0c0.6-0.8,1.3-1.5,1.9-2.1c1.8-1.8,3.6-3.3,5.1-4.5c1.5-1.1,2.8-1.9,3.7-2.5c0.9-0.5,1.4-0.8,1.4-0.8
			s-0.6,0.1-1.6,0.3c-1,0.3-2.5,0.7-4.3,1.5c-1.8,0.8-4,1.9-6.3,3.5c-2.3,1.6-4.8,3.7-7.1,6.4c-1.9,2.2-3.7,4.9-5.2,8
			c-0.3,0.6-0.6,1.2-0.8,1.8c-1.6,3.8-2.6,8.1-2.9,12.5c-0.1,0.7-0.1,1.5-0.1,2.2c0,0.2,0,0.4,0,0.5c0,0.7,0,1.4,0,2.1v0.1
			c0,0.8,0,1.6,0.1,2.4c0,0.1,0,0.2,0,0.2c0,0.7,0.1,1.4,0.2,2.1c-0.5-1.1-1-2.2-1.5-3.4c-0.5-1.3-1.1-2.7-1.6-4
			c-0.4-1.2-0.9-2.6-1.4-3.9c-0.5-1.3-0.9-2.7-1.2-4c-1.5-5.4-2.7-10.9-3.2-16.3c-0.5-5.4-0.5-10.8,0-15.9c1-10.2,3.9-19.4,7.4-26.7
			c1.4-3,2.9-5.6,4.3-8c0.4,0.1,0.8,0.1,1.2,0.2c0.6,0.1,1.3,0.1,1.9,0.1c0.6,0,1.3,0,1.9,0c0.6,0,1.3-0.1,1.9-0.2
			c1.3-0.2,2.5-0.5,3.7-0.9c0.6-0.2,1.2-0.5,1.8-0.7c0.6-0.2,1.1-0.5,1.7-0.8l0.2-0.1c0.4-0.2,1-0.6,1.6-0.8
			c0.6-0.3,1.1-0.5,1.7-0.8c1.2-0.5,2.3-0.9,3.5-1.3c0.6-0.2,1.2-0.3,1.8-0.5c0.6-0.1,1.2-0.2,1.8-0.3l2-0.2
			c0.9-0.1,1.7-0.3,2.5-0.5c3.1-1,5.8-2.7,7.9-5.1c1-1.2,1.9-2.5,2.4-3.9c0.5-1.4,0.8-3,0.4-4.4c-0.3,1.1-0.8,2-1.5,2.8
			c-0.2,0.2-0.4,0.5-0.6,0.7c-0.9,1-1.9,1.7-3,2.4c-2.1,1.3-4.5,2.2-6.8,2.5c-0.6,0.1-1.2,0.1-1.7,0.1l-0.5,0l-0.5,0l-1.2,0
			c-0.8,0.1-1.6,0.1-2.3,0.2c-0.8,0.1-1.5,0.3-2.3,0.4c-1.5,0.4-3,0.9-4.4,1.4c-0.7,0.3-1.4,0.6-2.1,1c-0.7,0.3-1.3,0.7-2,1.1
			c-0.4,0.2-0.8,0.5-1.2,0.7c-0.5,0.2-0.9,0.5-1.4,0.6c-0.5,0.2-0.9,0.4-1.4,0.6c-0.5,0.2-1,0.3-1.4,0.5c-0.5,0.1-0.9,0.2-1.4,0.3
			c-0.3,0.1-0.7,0.1-1.1,0.2c-0.1,0-0.2,0-0.3,0c-1.1,0.2-2.2,0.2-3.3,0.2c-0.5,0-1,0-1.5-0.1c-0.5,0-1-0.1-1.6-0.2
			c-0.5-0.1-1.1-0.2-1.6-0.3c-0.5-0.1-1.1-0.2-1.6-0.4c-0.5-0.1-1-0.3-1.6-0.5c-0.5-0.2-1.1-0.4-1.6-0.6c-1-0.4-2.1-0.9-3.1-1.4l0,0
			c-1.7-0.9-4.6-1.7-8.8,0.3c-3.8,1.8-4.5,5.1-6.7,9.1c-1.4,3.3-3,6.3-4.8,9.7c-2.9,5.5-3.6,5.8-5.9,7.5c-2.3,1.7-2.3-0.5-2.3-2.3
			c0-1.8-2.3-3-3-1.6c-0.7,1.4-1.1,2.3-1.1,2.3c-2.3,6.4-16.2,2.3-18.7,1.2c-2.5-1.1-0.5-2.1-0.5-2.1c-3.7-1.4-2.6-2.5-2.6-2.5
			S-24.2,234.9-21.8,231.6"/>
		<path class="st0" d="M65.9,36c12.2-3,24,4.9,24.9,5.5c0.1,0,0.1,0.1,0.1,0.1c0.3,0.2,0.6,0.6,1,0.8c0.3,0.3,0.7,0.6,1,1
			c0.3,0.4,0.7,0.7,1,1.1c0.3,0.4,0.6,0.7,0.9,1.1c0.3,0.4,0.6,0.7,0.8,1.1c0.2,0.4,0.5,0.7,0.8,1.1c0.2,0.4,0.5,0.7,0.7,1
			c0.4,0.6,0.8,1.2,1,1.6c0.3,0.4,0.4,0.6,0.4,0.6s0-0.3-0.1-0.7c-0.1-0.5-0.1-1.1-0.3-1.9c-0.2-0.8-0.5-1.7-1-2.6
			c-0.2-0.5-0.5-0.9-0.8-1.4c-0.3-0.5-0.6-0.9-1-1.3c-0.3-0.4-0.8-0.8-1.1-1.2c-0.4-0.4-0.8-0.7-1.3-1c-0.2-0.1-0.4-0.2-0.6-0.3
			c3-1.3,10.4-2.7,22.7,4.7c0,0,5.7,2.2,8.6,9.6c0,0,0.2,0.1,0.5,0.2c3.5,0,7.8,0.1,12.6,0.8c2.5,0.4,5.1,0.9,7.9,1.8
			c2.7,0.8,5.5,2,8.2,3.7c2.7,1.7,5.2,4,7,7.1c1.8,3,2.8,6.6,2.9,10.3c0.1,3.7-0.5,7.4-1.5,11.1c-0.5,1.8-1.1,3.6-1.8,5.4
			c-0.7,1.8-1.4,3.5-2.1,5.3c-1.4,3.6-2.6,7.2-3.7,11c-1,3.7-1.9,7.6-2.1,11.4c-0.1,1.5-0.1,2.9,0.1,4.4c2.3,0.1,4.2,2,4.2,4.3
			c0,1.2-0.5,2.2-1.2,3c0.3,0.2,0.6,0.3,0.9,0.5c1.9,1,4.2,2,7.1,2.7c1.4,0.3,3,0.5,4.6,0.8c1.7,0.3,3.4,0.7,5.2,1.3
			c3.6,1.2,7.3,2.9,10.7,5.6c2.9,2.3,5.7,5.3,7.4,9.1c1.1,1.6,2,3.3,2.7,5.2c1.6,4.1,1.9,8.7,1.2,12.8c-0.8,4.2-2.5,8-4.7,11.3
			c-2.2,3.3-4.8,6.1-7.5,8.6c-1.4,1.2-2.8,2.4-4.2,3.4c-0.7,0.5-1.4,1-2,1.5c-0.6,0.5-1.2,1-1.8,1.5c-2.3,2-4.3,4.3-5.5,6.7
			c-1.2,2.4-1.7,5-1.3,7.5c0.3,2.5,1.4,4.7,2.6,6.7c1.2,2,2.7,3.8,4.1,5.3c1.5,1.5,2.9,2.8,4.3,4c2.7,2.3,5.1,3.8,6.6,4.9
			c0.9,0.6,1.6,1,2,1.3c0.4,0.2,0.6,0.3,0.6,0.3l-0.1,0.4c0,0-0.1,0-0.2-0.1l0,0.1l-0.2-0.1l0,0c0,0-0.6-0.2-1.6-0.6
			c-1-0.4-2.5-1-4.4-1.9c-0.1,0-0.1,0-0.2-0.1c-1.9-0.8-4.2-1.9-6.7-3.3c-2.7-1.5-5.6-3.3-8.5-5.7c-1.5-1.2-2.9-2.6-4.3-4.2
			c-1.4-1.6-2.7-3.4-3.7-5.5c-1-2.1-1.7-4.5-1.6-7.1c0-2.6,0.7-5.1,1.9-7.4c1.2-2.3,2.8-4.3,4.5-6.1c1.8-1.8,3.7-3.4,5.8-4.8
			c1.1-0.8,2-1.3,3.1-2c1-0.6,2-1.3,3-1.9c2-1.3,3.8-2.8,5.6-4.4c3.5-3.2,6.6-6.8,8.4-11c0.5-1.1,0.8-2.2,1.1-3.3c0-0.6,0-1.2,0-1.7
			c-0.2-1.2-0.5-2.4-0.9-3.6c-1.2-3.3-3.3-6.4-6-8.8c-2.7-2.5-6.1-4.3-9.7-5.3c-1.7-0.5-3.9-0.8-5.9-1.4c-2-0.5-4.1-1.2-6.1-2
			c-2-0.8-4-1.9-5.8-3.2c-1.8-1.3-3.3-3-4.5-5c-1.9-0.5-3.3-2.1-3.3-4.1c0-1,0.4-2,1-2.7c-0.3-2.1-0.3-4.1-0.1-6.2
			c0.3-4.2,1.3-8.2,2.5-12.1c1.2-3.9,2.6-7.6,4-11.1c1.5-3.6,3.1-7,4.1-10.4c1-3.4,1.7-6.9,1.7-10.3c0-3.4-0.8-6.6-2.3-9.3
			c-1.5-2.7-3.8-4.9-6.2-6.6c-2.5-1.7-5.1-2.9-7.7-3.7c-2.6-0.9-5.2-1.5-7.6-2c-4-0.7-7.6-1-10.7-1.2c2.6,1.6,6.7,5.1,7.6,11.4
			c0.4,2.7,0.4,6.8-2.8,9.1c-1.6,1.1-2.8,2.1-3.9,2.8c-0.2-0.4-0.5-0.9-0.8-1.4c-0.4-0.7-0.9-1.4-1.3-2.2c-0.5-0.7-1.1-1.5-1.6-2.2
			c-0.6-0.7-1.2-1.5-1.8-2.2c-0.7-0.7-1.4-1.5-2.1-2.2c-0.7-0.7-1.5-1.4-2.3-2.1c-0.8-0.7-1.6-1.4-2.5-2c-1.7-1.3-3.5-2.6-5.4-3.7
			c-3.8-2.2-7.8-4-11.6-5.3c-1.9-0.7-3.8-1.2-5.6-1.6c-1.8-0.4-3.5-0.8-5.1-1c-1-0.2-1.9-0.3-2.8-0.4c-0.1-0.1-0.1-0.1-0.2-0.2
			c0,0,0,0,0,0l-0.2,0c-0.6-0.7-1.3-1.2-2-1.8c-0.3-0.3-0.7-0.6-1.1-0.9c-0.4-0.3-0.7-0.6-1.1-0.8c-0.4-0.3-0.8-0.5-1.2-0.8
			l-1.3-0.7c-0.4-0.2-0.9-0.4-1.4-0.6c-0.5-0.2-1-0.3-1.5-0.4c-0.5-0.1-1-0.2-1.6-0.2c-0.3,0-0.5,0-0.8,0.1c-0.2,0-0.3,0.1-0.5,0.1
			c-0.1,0-0.2,0-0.3,0.1c-0.1,0-0.2,0.1-0.4,0.2l0.2-0.1c-1.3,0.5-2.6,1.1-3.8,1.9l-0.1,0c-0.6,0.3-1.1,0.7-1.7,1.1l-6.1-1.1
			c0,0,0.2-1.9,3.2-2.9C60.5,43.6,57.7,38,65.9,36"/>
		<path class="st0" d="M198.3,277.2c0,0,24.2,24.3-4.1,40c0-0.2,0.1-0.4,0.1-0.6l0.2-1.7l0.1-0.4l0-0.2l0-0.2l0-0.1l0.1-0.9
			c0-0.6,0.1-1.2,0.1-1.8c0-0.7,0-1.5,0-2.2C197.3,307.8,208.1,300.7,198.3,277.2"/>
		<path class="st0" d="M-28.7,176c-5.2-1.6-8.9-12-9.4-14.3c-0.5-2.6,1.4-1.6,1.4-1.6c-1.1-3.8,0.4-3.5,0.4-3.5s3.2,3.6,7.3,3.5
			c0.1,0,0.1,0,0.2,0V176z"/>
		<path class="st0" d="M-33.4,346c0,0,2.2-0.1,4.7-1.6c2.5-1.5,5.4-3.3,7.6-1.8c2.2,1.5,8.3,3.5,8.3,3.5s-2.1-0.4,9.2,2
			c11.4,2.4,11.9-5.8,11.9-5.8l0.1-0.1c-0.3-1.9-1.5-4.6-4.8-8.1c-10.5-11.4-8.6-56.7,14.2-60.5c1,5.7,2.6,11.4,4.6,16.8
			c0.5,1.4,1,2.8,1.6,4.2c0.6,1.4,1.1,2.7,1.8,4.2c0.6,1.3,1.3,2.6,1.9,3.9c0.6,1.3,1.4,2.6,2.1,3.9c2.6,4.6,5.4,9,8.4,13
			c0.1,0.4,0.3,0.9,0.4,1.3l1.2,3.2c0.4,1.1,0.9,2.1,1.3,3.1c0.4,1,0.9,2.1,1.4,3.1c0.6,1.2,1.1,2.1,1.7,3.2c2.2,4,4.9,7.7,7.6,11
			c0.3,0.4,0.7,0.8,1,1.2c0.4,0.4,0.7,0.8,1.1,1.2c0.7,0.8,1.4,1.6,2.1,2.3c0.7,0.7,1.5,1.4,2.2,2.1c0,0,0.1,0.1,0.1,0.1
			c-5.7-0.1-14.2-1.6-24.9-7.1c-8.9-4.6-18.2,16.4-18.2,16.4c-2.4,4.2-8.6,8.4-16.4,3.7c-7.7-4.7-17.1-4.8-17.1-4.8l-2.1,1.9
			c-4.8,2.4-4.3-1.3-4.3-1.3c1.7-0.9-1.9-3.9-2.6-2.3c-0.7,1.6-1.2,1.1-1.2,1.1c-4.9-0.4-8.6-4.8-11.4-6.2c-2.9-1.4-3.4-2.2-3.4-2.2
			C-43.3,348.1-33.4,346-33.4,346"/>
		<path class="st0" d="M11.6,89.9l-0.3-0.3l-0.1-0.2L11,89.3l0,0l-0.1-0.1L10.7,89c-0.3-0.3-0.6-0.7-0.7-1c-0.2-0.4-0.3-0.7-0.4-1.1
			c-0.2-0.8-0.1-1.5-0.1-2.1c0,0,0,0,0-0.1l0.1-0.8c0,0-0.3,0.2-0.7,0.6c-0.2,0.2-0.4,0.5-0.6,0.9c-0.2,0.4-0.4,0.8-0.5,1.4
			c-0.1,0.5-0.2,1.2,0,1.8c0.1,0.7,0.4,1.3,0.8,2l0,0l-1.7,10.9c0,0,0.1,0,0.2,0c0.1-0.1,0.4-0.1,0.7-0.2c0.3-0.1,0.6-0.3,0.9-0.5
			c0.4-0.2,0.7-0.5,1.1-0.9c0.2-0.2,0.4-0.4,0.6-0.6c0.2-0.2,0.3-0.4,0.5-0.7c0.3-0.5,0.7-1,0.9-1.6c0.3-0.6,0.5-1.2,0.6-1.9
			c0.1-0.3,0.1-0.7,0.2-1.1c0-0.4,0-0.7,0-1.1c-0.1-0.8-0.2-1.5-0.7-2.4C11.8,90.3,11.7,90.1,11.6,89.9"/>
	</g>
</g>
</svg>
